HIERARCHY
ROOT Hips
{
	OFFSET 0.0000 0.0000 0.0000
	CHANNELS 6 Xposition Yposition Zposition Zrotation Xrotation Yrotation
	JOINT Ab
	{
		OFFSET -0.0000 8.1305 -0.0000
		CHANNELS 3 Zrotation Xrotation Yrotation
		JOINT Chest
		{
			OFFSET -0.0000 26.2902 -0.0000
			CHANNELS 3 Zrotation Xrotation Yrotation
			JOINT Neck
			{
				OFFSET -0.0000 26.2902 0.0000
				CHANNELS 3 Zrotation Xrotation Yrotation
				JOINT Head
				{
					OFFSET -0.0000 10.8167 0.0000
					CHANNELS 3 Zrotation Xrotation Yrotation
					End Site
					{
						OFFSET -0.0000 16.7167 0.0000
					}
				}
			}
			JOINT LeftCollar
			{
				OFFSET -0.0000 26.2902 0.0000
				CHANNELS 3 Zrotation Xrotation Yrotation
				JOINT LeftShoulder
				{
					OFFSET 19.6667 -0.0000 0.0000
					CHANNELS 3 Zrotation Xrotation Yrotation
					JOINT LeftElbow
					{
						OFFSET 27.2190 0.0000 0.0000
						CHANNELS 3 Zrotation Xrotation Yrotation
						JOINT LeftWrist
						{
							OFFSET 30.7431 0.0000 0.0000
							CHANNELS 3 Zrotation Xrotation Yrotation
							End Site
							{
								OFFSET 0.0000 -14.7500 0.0000
							}
						}
					}
				}
			}
			JOINT RightCollar
			{
				OFFSET -0.0000 26.2902 0.0000
				CHANNELS 3 Zrotation Xrotation Yrotation
				JOINT RightShoulder
				{
					OFFSET -19.6667 0.0000 0.0000
					CHANNELS 3 Zrotation Xrotation Yrotation
					JOINT RightElbow
					{
						OFFSET -27.2190 0.0000 0.0000
						CHANNELS 3 Zrotation Xrotation Yrotation
						JOINT RightWrist
						{
							OFFSET -30.7431 0.0000 0.0000
							CHANNELS 3 Zrotation Xrotation Yrotation
							End Site
							{
								OFFSET -0.0000 -14.7500 0.0000
							}
						}
					}
				}
			}
		}
	}
	JOINT LeftHip
	{
		OFFSET 11.8000 0.0000 0.0000
		CHANNELS 3 Zrotation Xrotation Yrotation
		JOINT LeftKnee
		{
			OFFSET -0.0000 -39.7832 0.0000
			CHANNELS 3 Zrotation Xrotation Yrotation
			JOINT LeftAnkle
			{
				OFFSET -0.0000 -41.7317 0.0000
				CHANNELS 3 Zrotation Xrotation Yrotation
				End Site
				{
					OFFSET -0.0000 -4.9167 16.7167
				}
			}
		}
	}
	JOINT RightHip
	{
		OFFSET -11.8000 0.0000 0.0000
		CHANNELS 3 Zrotation Xrotation Yrotation
		JOINT RightKnee
		{
			OFFSET -0.0000 -39.7832 0.0000
			CHANNELS 3 Zrotation Xrotation Yrotation
			JOINT RightAnkle
			{
				OFFSET -0.0000 -41.7317 0.0000
				CHANNELS 3 Zrotation Xrotation Yrotation
				End Site
				{
					OFFSET -0.0000 -4.9167 16.7167
				}
			}
		}
	}
}
MOTION
Frames: 12
Frame Time: 0.010000
-16.1314 96.6761 176.6785 358.6981 358.3996 177.7693 358.1259 348.6595 0.5816 2.4310 8.5003 0.5850 359.0586 354.4325 359.9918 356.3156 2.4560 0.1184 338.4834 357.4826 13.3423 319.0161 57.8979 340.4371 8.0126 357.6974 328.0788 84.4620 357.3899 345.1022 28.3866 355.9238 343.9871 44.2928 45.9259 3.7950 342.5826 355.1112 31.0992 271.4707 355.3990 11.7889 357.2697 3.7571 358.6058 357.4668 8.9285 359.7358 355.4608 348.9383 21.7962 359.3439 8.3942 8.8404 5.7049 4.0869 6.1910 350.9968 343.3314 319.5543 
-16.1534 96.6715 176.6828 358.7009 358.3638 177.7706 358.1189 348.6649 0.5794 2.4443 8.4919 0.5816 359.0515 354.4132 0.0059 356.3272 2.5075 0.1326 338.4815 357.4578 13.3398 318.9810 57.9081 340.4659 8.0998 357.6714 328.0515 84.3712 357.4039 345.0943 28.3746 355.9139 343.9868 44.3021 45.9332 3.8005 342.5244 355.1014 31.0854 271.5035 355.3683 11.7466 357.2583 3.6603 358.5988 357.4636 9.0430 359.6870 354.9581 348.7597 21.8313 359.3228 8.3457 8.8699 5.7252 4.1048 6.1867 351.0259 343.2860 319.5345 
-16.1808 96.6701 176.6741 358.7017 358.3493 177.7784 358.1138 348.6718 0.5771 2.4511 8.5010 0.5796 359.0635 354.4208 0.0138 356.3186 2.5324 0.1416 338.4865 357.4585 13.3363 318.9476 57.9217 340.4826 8.1005 357.7024 328.0547 84.3753 357.3929 345.1184 28.3736 355.9279 343.9860 44.2978 45.8614 3.7860 342.5366 355.0850 31.2206 271.2975 355.6726 11.2659 357.2390 3.5911 358.5497 357.4525 9.1579 359.7161 354.9469 348.6756 21.8298 359.2972 8.3325 8.8720 5.7371 4.1164 6.1646 351.0514 343.2500 319.5539 
-16.2067 96.6646 176.6746 358.7107 358.3109 177.7843 358.1238 348.6626 0.5731 2.4414 8.5081 0.5773 358.9760 354.5524 0.0055 356.4734 2.3731 0.1288 338.5064 357.4339 13.3538 318.9794 57.9812 340.4064 8.1290 357.6529 328.0827 84.4034 357.3929 345.1349 28.3637 355.9040 343.9816 44.3095 45.8862 3.7848 342.4864 355.0793 31.2100 271.3422 355.6479 11.2186 357.2349 3.4893 358.5299 357.4389 9.2845 359.6611 355.0038 348.6153 21.8890 359.2810 8.2867 8.8743 5.7559 4.1381 6.1605 350.9872 343.2579 319.5492 
-16.2352 96.6602 176.6757 358.7161 358.2798 177.7912 358.1276 348.6789 0.5735 2.4400 8.4920 0.5753 358.9243 354.6206 0.0134 356.5669 2.3085 0.1351 338.5072 357.4351 13.3823 319.0457 58.0297 340.3225 8.1090 357.6915 328.0982 84.4139 357.3767 345.1972 28.3541 355.9257 343.9815 44.3354 45.8577 3.7562 342.5185 355.0751 31.2349 271.3672 355.6239 11.1599 357.2246 3.3926 358.4909 357.4203 9.4087 359.6830 355.0672 348.5538 21.8917 359.2623 8.2420 8.8300 5.7674 4.1680 6.1759 351.0564 343.1449 319.5580 
-16.2705 96.6579 176.6696 358.7078 358.2564 177.7806 358.1362 348.6835 0.5753 2.4269 8.5049 0.5773 358.8929 354.6269 0.0254 356.6149 2.3257 0.1465 338.5051 357.4566 13.4150 319.1117 58.0400 340.2200 8.1004 357.6732 328.1576 83.8307 357.3494 344.8357 28.3586 355.9474 343.9832 44.3042 45.8367 3.7762 342.5131 355.0927 31.2482 271.4504 355.5860 11.1012 357.1900 3.3113 358.4493 357.4088 9.5287 359.6762 355.1322 348.4763 21.9387 359.2147 8.2078 8.8236 5.7916 4.2010 6.2052 351.0946 343.0714 319.5211 
-16.3062 96.6528 176.6664 358.7143 358.2292 177.7793 358.1604 348.6962 0.5785 2.4045 8.5087 0.5803 358.8932 354.6142 0.0283 356.6281 2.3721 0.1520 338.5193 357.4456 13.4208 319.0858 58.0654 340.2094 8.1777 357.6524 328.1523 83.8195 357.3579 344.8969 28.3622 355.9269 343.9825 44.2894 45.8424 3.7833 342.5122 355.0751 31.2449 271.3223 355.5711 11.0993 357.1714 3.2271 358.3898 357.3948 9.6417 359.7089 355.2631 348.4347 21.9505 359.1893 8.1645 8.8220 5.8110 4.2392 6.1897 351.2128 342.9636 319.5330 
-16.3453 96.6472 176.6641 358.7144 358.1996 177.7704 358.1879 348.7024 0.5802 2.3754 8.5298 0.5799 358.9028 354.5960 0.0480 356.6249 2.4063 0.1726 338.5295 357.4580 13.4457 319.0989 58.0467 340.1531 8.1505 357.6644 328.1019 84.2595 357.4244 345.1895 28.3706 355.9311 343.9840 44.2587 45.8516 3.7870 342.5554 355.0680 31.2602 271.2237 355.5975 11.2376 357.1471 3.1451 358.2581 357.3636 9.7441 359.7754 355.3354 348.3816 22.0096 359.1493 8.1099 8.8332 5.8391 4.2949 6.1821 351.1591 342.9318 319.5754 
-16.3844 96.6428 176.6571 358.7162 358.1714 177.7514 358.1897 348.6884 0.5934 2.3792 8.5831 0.5957 358.9698 354.5841 0.0723 356.5414 2.4334 0.1948 338.5331 357.4416 13.4384 319.0550 58.0293 340.1796 8.1973 357.6431 328.0739 84.2322 357.4249 345.1812 28.3620 355.9476 343.9998 44.2351 45.7966 3.8054 342.5638 355.0972 31.2967 271.3417 355.5462 11.0677 357.1221 3.0632 358.2033 357.3455 9.8588 359.7834 355.4329 348.3060 22.0463 359.1165 8.0515 8.8086 5.8534 4.3621 6.2123 351.2102 342.8040 319.5682 
-16.4260 96.6381 176.6478 358.7125 358.1559 177.7260 358.2008 348.7038 0.6035 2.3690 8.6024 0.6018 358.9920 354.6196 0.0986 356.5259 2.4179 0.2225 338.5344 357.4209 13.4623 319.0976 58.0767 340.1192 8.2310 357.6519 328.0753 84.2099 357.3993 345.2421 28.3621 355.9413 344.0284 44.2405 45.7724 3.7672 342.5603 355.0859 31.3112 271.2103 355.5923 11.1247 357.0876 2.9889 358.1657 357.3338 9.9867 359.7947 355.4840 348.2093 22.0714 359.0696 8.0072 8.8066 5.8834 4.4256 6.2317 351.3365 342.6426 319.5616 
-16.4702 96.6339 176.6402 358.7081 358.1229 177.7161 358.2056 348.7074 0.6089 2.3633 8.6133 0.6064 359.0024 354.6688 0.1214 356.5326 2.3876 0.2416 338.5206 357.4405 13.4731 319.1374 58.0850 340.0800 8.1809 357.6496 328.0353 84.4051 357.4596 345.3421 28.3554 355.9586 344.0611 44.2897 45.7213 3.6926 342.5761 355.0691 31.3438 271.2329 355.6215 11.1457 357.0503 2.8805 358.1222 357.3224 10.1449 359.7883 355.5602 348.1295 22.1077 359.0273 7.9180 8.6054 5.8959 4.5621 6.3825 351.3928 342.4994 319.5922 
-16.5134 96.6280 176.6276 358.7084 358.0931 177.6925 358.2243 348.7183 0.6136 2.3446 8.6155 0.6123 358.9990 354.6857 0.1394 356.5412 2.4321 0.2605 338.5297 357.4262 13.4904 319.1132 58.1166 340.0867 8.2764 357.6182 327.9961 84.4062 357.4722 345.5107 28.3581 355.9450 344.0744 44.2813 45.7537 3.6819 342.5481 355.0632 31.2942 271.2795 355.5589 11.2281 357.0254 2.7959 358.0868 357.2953 10.2739 359.7678 355.5910 348.0154 22.1674 358.9887 7.8519 8.5749 5.9146 4.6552 6.4386 351.3812 342.3843 319.5774 
